<svg width="55" height="37" viewBox="0 0 55 37" fill="none" xmlns="http://www.w3.org/2000/svg">
  <rect width="55" height="37" rx="4" fill="#18181b"/>
  <path d="M31.8352 13.3125H24.3693C24.233 12.3466 23.9545 11.4886 23.5341 10.7386C23.1136 9.97727 22.5739 9.32954 21.9148 8.79545C21.2557 8.26136 20.4943 7.85227 19.6307 7.56818C18.7784 7.28409 17.8523 7.14205 16.8523 7.14205C15.0455 7.14205 13.4716 7.59091 12.1307 8.48864C10.7898 9.375 9.75 10.6705 9.01136 12.375C8.27273 14.0682 7.90341 16.125 7.90341 18.5455C7.90341 21.0341 8.27273 23.125 9.01136 24.8182C9.76136 26.5114 10.8068 27.7898 12.1477 28.6534C13.4886 29.517 15.0398 29.9489 16.8011 29.9489C17.7898 29.9489 18.7045 29.8182 19.5455 29.5568C20.3977 29.2955 21.1534 28.9148 21.8125 28.4148C22.4716 27.9034 23.017 27.2841 23.4489 26.5568C23.892 25.8295 24.1989 25 24.3693 24.0682L31.8352 24.1023C31.642 25.7045 31.1591 27.25 30.3864 28.7386C29.625 30.2159 28.5966 31.5398 27.3011 32.7102C26.017 33.8693 24.483 34.7898 22.6989 35.4716C20.9261 36.142 18.9205 36.4773 16.6818 36.4773C13.5682 36.4773 10.7841 35.7727 8.32955 34.3636C5.88636 32.9545 3.95455 30.9148 2.53409 28.2443C1.125 25.5739 0.420455 22.3409 0.420455 18.5455C0.420455 14.7386 1.13636 11.5 2.56818 8.82955C4 6.15909 5.94318 4.125 8.39773 2.72727C10.8523 1.31818 13.6136 0.613635 16.6818 0.613635C18.7045 0.613635 20.5795 0.897726 22.3068 1.46591C24.0455 2.03409 25.5852 2.86364 26.9261 3.95454C28.267 5.03409 29.358 6.35795 30.1989 7.92614C31.0511 9.49432 31.5966 11.2898 31.8352 13.3125Z" fill="white"/>
  <path d="M54.233 1.09091V36H47.858L32.6705 14.0284H32.4148V36H25.0341V1.09091H31.5114L46.5795 23.0455H46.8864V1.09091H54.233Z" fill="white" fill-opacity="0.6"/>
</svg>
